<svg version="1.2" xmlns="http://www.w3.org/2000/svg" viewBox="0 0 1024 1024" width="100" height="100">
	<title>trace</title>
	<style>
		.s0 { fill: #ffffff } 
		.s1 { fill: #0b0b0b } 
	</style>
	<g id="Layer 1">
		<path id="Shape 1" fill-rule="evenodd" class="s0" d="m938 152v714h-822v-714z"/>
		<path fill-rule="evenodd" class="s1" d="m149 0.7c-8.1 0.6-20 2.5-26.4 4.3-6.3 1.8-15 4.6-19.3 6.4-4.3 1.7-12.8 5.9-18.8 9.2-6 3.3-15.7 9.8-21.6 14.4-5.9 4.7-14.1 12.1-18.2 16.6-4.1 4.5-10.2 12-13.6 16.7-3.4 4.7-8.8 13.7-12.1 20.1-3.3 6.3-8.4 18.8-11.2 27.7-2.9 8.9-5.9 21.6-6.8 28.3-1.1 8.2-1.6 124.1-1.6 366.9 0 300.1 0.3 357.1 2.1 369.5 1.2 8.1 4 20.6 6.1 27.8 2.2 7.2 7 19.1 10.7 26.5 3.6 7.4 10.1 18.1 14.3 23.9 4.2 5.7 11.6 14.5 16.6 19.5 5 4.9 14 12.5 20.1 16.8 6 4.2 16.4 10.4 23.1 13.6 6.6 3.2 18.8 7.8 26.9 10.2 14.9 4.3 14.9 4.3 388.3 4.7 372.5 0.4 373.4 0.4 388.6-2.8 8.4-1.7 20.6-5.4 27.3-8.1 6.6-2.8 17-8 23.2-11.7 6.2-3.6 16.1-10.9 22.2-16.1 6.1-5.3 15.6-15.4 21.1-22.6 6-7.7 13.4-19.9 18.3-30 4.5-9.4 10-23.9 12.2-32.4 4.1-15.4 4.1-15.4 4.1-387.8 0-372.3 0-372.3-4-387.5-2.3-8.3-7.4-22.2-11.3-30.8-4-8.6-11.4-21.3-16.4-28.2-5.1-6.9-13.4-16.5-18.5-21.5-5.2-4.9-15.3-13-22.6-17.8-7.3-4.9-19.2-11.4-26.3-14.3-7.2-3-19.8-6.9-28.1-8.6-14.9-3.2-18.3-3.2-374.3-3.5-197.5-0.2-365.9 0.1-374.1 0.6zm524 210.2c-7.5 1.2-17.8 3.3-23.1 4.7-5.2 1.4-13.5 4-18.4 5.7-4.9 1.7-15 6.3-22.3 10.1-7.4 3.8-18.4 10.4-24.5 14.7-6.2 4.3-17 13.6-24.1 20.7-7.1 7-17.1 18.9-22.2 26.3-5 7.4-13.3 22-18.3 32.5-5 10.5-9.4 18.2-9.7 17-0.4-1.2-9.3-27.5-19.9-58.4-10.5-31-20.6-60.3-22.3-65.2-3.1-8.8-3.1-8.8-55.6-8.8-52.6 0-52.6 0-54.3 5-1 2.7-12 35.5-24.6 72.8-12.6 37.3-27.9 82.8-34 101-6.1 18.2-27.9 82.7-48.4 143.4-20.4 60.6-41.3 122.5-46.4 137.5-5 15-13.7 40.3-19.3 56.3-10.2 29-10.2 29 39 29.4 27.1 0.2 49.4 0.2 49.7-0.1 0.2-0.2 6.8-21.9 14.7-48.2 7.9-26.2 16.5-54.5 19-62.8 4.5-15 4.5-15 104.8-15 100.3 0 100.3 0 102.8 6.6 1.4 3.6 4.8 11 7.7 16.5 2.8 5.5 8.2 14.9 11.9 20.7 3.8 5.9 12.2 16.5 18.7 23.6 6.5 7.1 17.6 17.4 24.6 22.9 7 5.4 20.2 13.7 29.2 18.3 9 4.6 22 10.2 29 12.4 6.9 2.2 20.2 5.4 29.5 7.1 11.5 2 23.9 2.9 38.8 2.9 12 0 28.5-1 36.7-2.3 8.2-1.3 20.9-4.1 28.3-6.2 7.3-2.2 20.7-7.7 29.8-12.3 9-4.6 21-12 26.8-16.4 5.7-4.4 15.8-13.6 22.3-20.5 6.6-6.8 16.2-18.9 21.3-26.8 5.1-7.9 11.9-20 15-27 3.2-6.9 7.5-18.5 9.6-25.7 2.1-7.2 4.5-17.6 5.4-23.1 0.9-5.5 1.9-12.3 2.4-15 0.8-5 0.8-5-46.7-5-47.4 0-47.4 0-50 11.1-1.4 6.2-5.3 17.1-8.8 24.3-4.7 9.9-8.9 16-17.4 24.8-8 8.4-14.3 13.3-22 17.3-5.9 3-15.9 6.7-22.1 8.1-8.6 2-15.8 2.4-30.9 1.8-11.5-0.4-23.3-1.8-28.5-3.3-5-1.4-13.7-4.9-19.4-7.8-5.7-2.9-14-8.3-18.4-12.1-4.4-3.8-11-10.6-14.6-15.1-3.7-4.6-10.3-15.9-14.7-25.2-4.4-9.4-9.7-23.6-11.8-31.6-2-8.1-4.8-21.3-6.1-29.3-1.6-9.5-2.7-27.9-3.2-51.7-0.6-28.5-0.2-41.2 1.6-55.6 1.3-10.2 4-25.2 6-33.3 2-8 5.4-19.3 7.6-25 2.2-5.8 6.4-14.7 9.2-20 2.9-5.2 8-13.2 11.4-17.8 3.4-4.6 9.9-11.5 14.4-15.2 4.5-3.7 14.2-9.9 21.6-13.6 7.4-3.7 18.3-7.8 24.3-9.1 6-1.3 18.3-2.3 27.4-2.3 10.2 0 20.4 0.9 26.4 2.4 5.3 1.4 14.6 4.9 20.5 7.8 6.2 3 14.5 8.9 19.6 13.8 4.9 4.7 11.4 12.4 14.5 17.2 3 4.8 7.4 13.7 9.8 19.9 2.3 6.1 4.9 14.7 5.8 19 1.6 7.8 1.6 7.8 48.4 7.8 46.7 0 46.7 0 46.7-5.8 0-3.2-1-12.6-2.2-20.9-1.2-8.3-4.2-21.3-6.6-28.9-2.5-7.6-6.6-18.1-9.2-23.4-2.5-5.3-7.7-14.5-11.5-20.4-3.8-5.9-11.1-15.5-16.4-21.2-5.2-5.8-14.5-14.4-20.5-19.1-6.1-4.7-16.6-11.6-23.3-15.3-6.7-3.7-18.2-8.8-25.4-11.4-7.2-2.6-19.6-6.2-27.5-8-11.1-2.4-21.4-3.3-44.2-3.8-20.7-0.4-34 0.1-43.4 1.6zm-261.8 115c-0.4 1.2-2.4 7.4-4.4 13.8-2 6.3-17.4 54.1-34.3 106.2-16.8 52.1-30.4 94.8-30.2 94.8 0.2 0.1 32.4 0 71.6-0.3 66.8-0.4 71.2-0.5 70.2-3-0.6-1.5-7.6-22.5-15.7-46.7-8-24.1-23.7-71.2-34.8-104.7-11.2-33.4-20.6-61.1-21-61.5-0.4-0.4-1 0.3-1.4 1.4z"/>
	</g>
</svg>