<svg xmlns="http://www.w3.org/2000/svg" viewBox="0 0 16 16" fill="#fff" id="Goodreads-Logo--Streamline-Phosphor" height="22" width="22">
  <desc>
    Goodreads Logo Streamline Icon: https://streamlinehq.com
  </desc>
  <path d="M12.2215375 0.16c-0.33306875 0 -0.603075 0.27000625 -0.603075 0.603075v1.0357875C9.1618875 -0.98663125 4.61114375 -0.06825 3.427125 3.45195c-0.1661375 0.4939375 -0.25115625 1.01153125 -0.2517375 1.5326625v1.80923125c0.004175 3.71399375 4.02729375 6.0307125 7.24161875 4.1701 0.45101875 -0.261075 0.8567625 -0.59349375 1.20145625 -0.98434375v1.0357875c-0.00208125 1.99755625 -1.6209 3.61638125 -3.6184625 3.61845625 -1.240075 0 -2.46658125 -0.60910625 -3.1239375 -1.5514125 -0.26578125 -0.3806875 -0.844 -0.33089375 -1.04079375 0.089625 -0.091325 0.19515625 -0.07160625 0.42421875 0.05174375 0.6009C4.7629875 15.0288625 6.377725 15.84 8 15.84c2.66335625 -0.0029125 4.82170625 -2.1612625 4.8246125 -4.82461875V0.763075c0 -0.33306875 -0.27000625 -0.603075 -0.603075 -0.603075ZM8 10.41230625c-1.9975625 -0.002075 -3.61638125 -1.6209 -3.6184625 -3.6184625V4.9846125c0 -2.7854875 3.0153875 -4.526425 5.42769375 -3.133675 1.11955625 0.646375 1.80923125 1.840925 1.80923125 3.133675v1.80923125c-0.00208125 1.9975625 -1.6209 3.6163875 -3.6184625 3.6184625Z" stroke-width="0.0625"></path>
</svg>
