<svg xmlns="http://www.w3.org/2000/svg" viewBox="0 0 16 16" fill="#fff" id="Read-Cv-Logo--Streamline-Phosphor" height="22" width="22">
  <desc>
    Read Cv Logo Streamline Icon: https://streamlinehq.com
  </desc>
  <path d="M13.7932875 1.78715 4.6757125 0.1771375c-0.60906875 -0.10718125 -1.18974375 0.29956875 -1.2971125 0.90860625L1.29608125 12.91584375c-0.107125 0.60953125 0.30040625 1.1904125 0.91000625 1.2971125l9.11758125 1.6100125c0.609775 0.10755625 1.191125 -0.300075 1.2978125 -0.91000625l2.0825125 -11.8301c0.10624375 -0.60926875 -0.3014625 -1.18933125 -0.91070625 -1.2957125Zm-2.27641875 12.93260625L2.39859375 13.10974375 4.4811125 1.27964375 13.5986875 2.88965625ZM5.29241875 3.1290625c0.0540125 -0.3044 0.344475 -0.5074375 0.64890625 -0.45360625l5.81004375 1.0255125c0.42463125 0.0743875 0.60949375 0.58055 0.33275625 0.9110875 -0.10655 0.127275 -0.26406875 0.20071875 -0.43005625 0.20051875 -0.03284375 -0.00004375 -0.065625 -0.00285625 -0.098 -0.0084L5.74601875 3.77796875c-0.30439375 -0.05401875 -0.5074375 -0.34448125 -0.4536 -0.64890625Zm-0.38780625 2.20641875c0.05368125 -0.30468125 0.34425 -0.5081125 0.64890625 -0.45430625l5.81005 1.0262125c0.4251875 0.0711125 0.61394375 0.5758375 0.3397625 0.9085 -0.10763125 0.1305875 -0.26854375 0.20550625 -0.4377625 0.20380625 -0.0331125 0.00006875 -0.06615625 -0.00298125 -0.0987 -0.0091L5.35681875 5.9850875c-0.30415 -0.05468125 -0.506525 -0.34539375 -0.45220625 -0.64960625Zm-0.3885 2.20571875c0.05501875 -0.30354375 0.3451625 -0.505425 0.64890625 -0.45150625l2.90361875 0.51030625c0.424625 0.0743875 0.6094875 0.58055 0.33275625 0.91109375 -0.10639375 0.12708125 -0.26361875 0.20050625 -0.42935625 0.2005125 -0.03284375 -0.0000125 -0.06563125 -0.002825 -0.098 -0.0084l-2.905025 -0.5131c-0.30410625 -0.05435625 -0.5067625 -0.3447125 -0.4529 -0.64890625Z" stroke-width="0.0625"></path>
</svg>
